# Blender 4.4.1
# www.blender.org
mtllib anchor.mtl
o Cube
v -1.820092 -0.000000 0.000000
v 0.179908 0.000000 0.595309
v 1.179920 1.414214 -0.000000
v 1.179920 -1.414213 -0.000000
v 0.179908 0.000000 -0.595309
v 0.179908 0.000000 -0.000000
vn -0.2441 0.5178 0.8200
vn 0.8165 -0.5774 -0.0000
vn -0.2441 -0.5178 0.8200
vn -0.2441 -0.5178 -0.8200
vn -0.2441 0.5178 -0.8200
vn 0.8165 0.5774 -0.0000
vt 0.684569 0.999917
vt 0.342326 0.500000
vt 0.494741 0.395657
vt 0.684569 0.265700
vt 0.000083 0.000083
vt 0.189911 0.604343
vt 0.000083 0.734300
s 0
usemtl Material
f 3/1/1 1/2/1 2/3/1
f 3/1/2 2/3/2 6/4/2
f 4/5/3 2/3/3 1/2/3
f 5/6/4 4/5/4 1/2/4
f 3/1/5 5/6/5 1/2/5
f 5/6/6 6/7/6 4/5/6
f 6/7/2 5/6/2 3/1/2
f 4/5/6 6/4/6 2/3/6
