# Blender 4.4.1
# www.blender.org
mtllib bullet.mtl
o ICO球
v 0.000000 -1.000000 0.000000
v 0.723607 -0.447220 0.525725
v -0.276388 -0.447220 0.850649
v -0.894426 -0.447216 0.000000
v -0.276388 -0.447220 -0.850649
v 0.723607 -0.447220 -0.525725
v 0.276388 0.447220 0.850649
v -0.723607 0.447220 0.525725
v -0.723607 0.447220 -0.525725
v 0.276388 0.447220 -0.850649
v 0.894426 0.447216 0.000000
v 0.000000 1.000000 0.000000
v -0.162456 -0.850654 0.499995
v 0.425323 -0.850654 0.309011
v 0.262869 -0.525738 0.809012
v 0.850648 -0.525736 0.000000
v 0.425323 -0.850654 -0.309011
v -0.525730 -0.850652 0.000000
v -0.688189 -0.525736 0.499997
v -0.162456 -0.850654 -0.499995
v -0.688189 -0.525736 -0.499997
v 0.262869 -0.525738 -0.809012
v 0.951058 0.000000 0.309013
v 0.951058 0.000000 -0.309013
v 0.000000 0.000000 1.000000
v 0.587786 0.000000 0.809017
v -0.951058 0.000000 0.309013
v -0.587786 0.000000 0.809017
v -0.587786 0.000000 -0.809017
v -0.951058 0.000000 -0.309013
v 0.587786 0.000000 -0.809017
v 0.000000 0.000000 -1.000000
v 0.688189 0.525736 0.499997
v -0.262869 0.525738 0.809012
v -0.850648 0.525736 0.000000
v -0.262869 0.525738 -0.809012
v 0.688189 0.525736 -0.499997
v 0.162456 0.850654 0.499995
v 0.525730 0.850652 0.000000
v -0.425323 0.850654 0.309011
v -0.425323 0.850654 -0.309011
v 0.162456 0.850654 -0.499995
vn 0.1024 -0.9435 0.3151
vn 0.7002 -0.6617 0.2680
vn -0.2680 -0.9435 0.1947
vn -0.2680 -0.9435 -0.1947
vn 0.1024 -0.9435 -0.3151
vn 0.9050 -0.3304 0.2680
vn 0.0247 -0.3304 0.9435
vn -0.8897 -0.3304 0.3151
vn -0.5746 -0.3304 -0.7488
vn 0.5346 -0.3304 -0.7779
vn 0.8026 -0.1256 0.5831
vn -0.3066 -0.1256 0.9435
vn -0.9921 -0.1256 -0.0000
vn -0.3066 -0.1256 -0.9435
vn 0.8026 -0.1256 -0.5831
vn 0.4089 0.6617 0.6284
vn -0.4713 0.6617 0.5831
vn -0.7002 0.6617 -0.2680
vn 0.0385 0.6617 -0.7488
vn 0.7240 0.6617 -0.1947
vn 0.2680 0.9435 -0.1947
vn 0.4911 0.7947 -0.3568
vn 0.4089 0.6617 -0.6284
vn -0.1024 0.9435 -0.3151
vn -0.1876 0.7947 -0.5773
vn -0.4713 0.6617 -0.5831
vn -0.3313 0.9435 -0.0000
vn -0.6071 0.7947 -0.0000
vn -0.7002 0.6617 0.2680
vn -0.1024 0.9435 0.3151
vn -0.1876 0.7947 0.5773
vn 0.0385 0.6617 0.7488
vn 0.2680 0.9435 0.1947
vn 0.4911 0.7947 0.3568
vn 0.7240 0.6617 0.1947
vn 0.8897 0.3304 -0.3151
vn 0.7947 0.1876 -0.5773
vn 0.5746 0.3304 -0.7488
vn -0.0247 0.3304 -0.9435
vn -0.3035 0.1876 -0.9342
vn -0.5346 0.3304 -0.7779
vn -0.9050 0.3304 -0.2680
vn -0.9822 0.1876 -0.0000
vn -0.9050 0.3304 0.2680
vn -0.5346 0.3304 0.7779
vn -0.3035 0.1876 0.9342
vn -0.0247 0.3304 0.9435
vn 0.5746 0.3304 0.7488
vn 0.7947 0.1876 0.5773
vn 0.8897 0.3304 0.3151
vn 0.3066 0.1256 -0.9435
vn 0.3035 -0.1876 -0.9342
vn 0.0247 -0.3304 -0.9435
vn -0.8026 0.1256 -0.5831
vn -0.7947 -0.1876 -0.5773
vn -0.8897 -0.3304 -0.3151
vn -0.8026 0.1256 0.5831
vn -0.7947 -0.1876 0.5773
vn -0.5746 -0.3304 0.7488
vn 0.3066 0.1256 0.9435
vn 0.3035 -0.1876 0.9342
vn 0.5346 -0.3304 0.7779
vn 0.9921 0.1256 -0.0000
vn 0.9822 -0.1876 -0.0000
vn 0.9050 -0.3304 -0.2680
vn 0.4713 -0.6617 -0.5831
vn 0.1876 -0.7947 -0.5773
vn -0.0385 -0.6617 -0.7488
vn -0.4089 -0.6617 -0.6284
vn -0.4911 -0.7947 -0.3568
vn -0.7240 -0.6617 -0.1947
vn -0.7240 -0.6617 0.1947
vn -0.4911 -0.7947 0.3568
vn -0.4089 -0.6617 0.6284
vn 0.7002 -0.6617 -0.2680
vn 0.6071 -0.7947 -0.0000
vn 0.3313 -0.9435 -0.0000
vn -0.0385 -0.6617 0.7488
vn 0.1876 -0.7947 0.5773
vn 0.4713 -0.6617 0.5831
vt 0.000080 0.262723
vt 0.087360 0.157849
vt 0.129372 0.306311
vt 0.188237 0.999920
vt 0.080835 0.915759
vt 0.214712 0.880883
vt 0.021749 0.390913
vt 0.139470 0.460787
vt 0.027164 0.539322
vt 0.140912 0.615750
vt 0.023664 0.686241
vt 0.131694 0.770180
vt 0.321144 0.969179
vt 0.242401 0.291859
vt 0.214707 0.201862
vt 0.311314 0.241941
vt 0.250665 0.457339
vt 0.233863 0.376947
vt 0.313734 0.415496
vt 0.252360 0.617398
vt 0.238419 0.537365
vt 0.315956 0.576647
vt 0.245914 0.786624
vt 0.236723 0.699090
vt 0.318247 0.743854
vt 0.201992 0.083892
vt 0.309465 0.000080
vt 0.309832 0.135940
vt 0.312598 0.332052
vt 0.314851 0.496320
vt 0.317063 0.658250
vt 0.319363 0.839795
vt 0.390651 0.196903
vt 0.436606 0.087035
vt 0.506539 0.224788
vt 0.378526 0.374506
vt 0.396300 0.290794
vt 0.490446 0.378518
vt 0.378714 0.535475
vt 0.391665 0.455550
vt 0.489817 0.533467
vt 0.384324 0.697741
vt 0.394444 0.615197
vt 0.496530 0.688236
vt 0.408610 0.882922
vt 0.406788 0.783005
vt 0.523860 0.840286
vt 0.621098 0.744326
vt 0.606059 0.605955
vt 0.603150 0.456452
vt 0.610621 0.313391
vt 0.590868 0.095348
vt 0.643114 0.221577
vt 0.474538 0.986599
vt 0.000080 0.805874
s 0
usemtl マテリアル
f 1/1/1 14/2/1 13/3/1
f 2/4/2 14/5/2 16/6/2
f 1/7/3 13/3/3 18/8/3
f 1/9/4 18/8/4 20/10/4
f 1/11/5 20/10/5 17/12/5
f 2/4/6 16/6/6 23/13/6
f 3/14/7 15/15/7 25/16/7
f 4/17/8 19/18/8 27/19/8
f 5/20/9 21/21/9 29/22/9
f 6/23/10 22/24/10 31/25/10
f 2/26/11 23/27/11 26/28/11
f 3/14/12 25/16/12 28/29/12
f 4/17/13 27/19/13 30/30/13
f 5/20/14 29/22/14 32/31/14
f 6/23/15 31/25/15 24/32/15
f 7/33/16 33/34/16 38/35/16
f 8/36/17 34/37/17 40/38/17
f 9/39/18 35/40/18 41/41/18
f 10/42/19 36/43/19 42/44/19
f 11/45/20 37/46/20 39/47/20
f 39/47/21 42/44/21 12/48/21
f 39/47/22 37/46/22 42/44/22
f 37/46/23 10/42/23 42/44/23
f 42/44/24 41/41/24 12/49/24
f 42/44/25 36/43/25 41/41/25
f 36/43/26 9/39/26 41/41/26
f 41/41/27 40/38/27 12/50/27
f 41/41/28 35/40/28 40/38/28
f 35/40/29 8/36/29 40/38/29
f 40/38/30 38/35/30 12/51/30
f 40/38/31 34/37/31 38/35/31
f 34/37/32 7/33/32 38/35/32
f 38/35/33 39/52/33 12/53/33
f 38/35/34 33/34/34 39/52/34
f 33/54/35 11/45/35 39/47/35
f 24/32/36 37/46/36 11/45/36
f 24/32/37 31/25/37 37/46/37
f 31/25/38 10/42/38 37/46/38
f 32/31/39 36/43/39 10/42/39
f 32/31/40 29/22/40 36/43/40
f 29/22/41 9/39/41 36/43/41
f 30/30/42 35/40/42 9/39/42
f 30/30/43 27/19/43 35/40/43
f 27/19/44 8/36/44 35/40/44
f 28/29/45 34/37/45 8/36/45
f 28/29/46 25/16/46 34/37/46
f 25/16/47 7/33/47 34/37/47
f 26/28/48 33/34/48 7/33/48
f 26/28/49 23/27/49 33/34/49
f 23/13/50 11/45/50 33/54/50
f 31/25/51 32/31/51 10/42/51
f 31/25/52 22/24/52 32/31/52
f 22/24/53 5/20/53 32/31/53
f 29/22/54 30/30/54 9/39/54
f 29/22/55 21/21/55 30/30/55
f 21/21/56 4/17/56 30/30/56
f 27/19/57 28/29/57 8/36/57
f 27/19/58 19/18/58 28/29/58
f 19/18/59 3/14/59 28/29/59
f 25/16/60 26/28/60 7/33/60
f 25/16/61 15/15/61 26/28/61
f 15/15/62 2/26/62 26/28/62
f 23/13/63 24/32/63 11/45/63
f 23/13/64 16/6/64 24/32/64
f 16/6/65 6/23/65 24/32/65
f 17/12/66 22/24/66 6/23/66
f 17/12/67 20/10/67 22/24/67
f 20/10/68 5/20/68 22/24/68
f 20/10/69 21/21/69 5/20/69
f 20/10/70 18/8/70 21/21/70
f 18/8/71 4/17/71 21/21/71
f 18/8/72 19/18/72 4/17/72
f 18/8/73 13/3/73 19/18/73
f 13/3/74 3/14/74 19/18/74
f 16/6/75 17/12/75 6/23/75
f 16/6/76 14/5/76 17/12/76
f 14/5/77 1/55/77 17/12/77
f 13/3/78 15/15/78 3/14/78
f 13/3/79 14/2/79 15/15/79
f 14/2/80 2/26/80 15/15/80
